<?xml version="1.0" encoding="utf-8"?>
<!-- Generator: Adobe Illustrator 25.4.1, SVG Export Plug-In . SVG Version: 6.00 Build 0)  -->
<svg version="1.1" id="Layer_1" xmlns="http://www.w3.org/2000/svg" xmlns:xlink="http://www.w3.org/1999/xlink" x="0px" y="0px"
	 viewBox="0 0 6339.7 971.7" style="enable-background:new 0 0 6339.7 971.7;" xml:space="preserve">
<style type="text/css">
	.st0{fill:none;stroke:#F7F8F8;stroke-width:7;stroke-miterlimit:10;}
	.st1{fill:#383938;}
	.st2{fill:#282828;}
	.st3{clip-path:url(#SVGID_00000034085466590151243550000017350265249000981382_);}
	.st4{fill:#FFFFFF;}
	.st5{fill:#ACC9E9;}
	.st6{fill:#D5E5F6;}
	.st7{clip-path:url(#SVGID_00000034085466590151243550000017350265249000981382_);fill:#DDDDDD;}
	.st8{clip-path:url(#SVGID_00000034085466590151243550000017350265249000981382_);fill:#F1625D;}
	.st9{clip-path:url(#SVGID_00000034085466590151243550000017350265249000981382_);fill:#EBD44F;}
	.st10{clip-path:url(#SVGID_00000034085466590151243550000017350265249000981382_);fill:#4DBA76;}
	.st11{fill:#2B2C2B;}
	.st12{opacity:0.2;}
	.st13{clip-path:url(#SVGID_00000138562316191488905500000002784265752490331792_);fill:#010101;}
	.st14{fill:#485A93;}
	.st15{clip-path:url(#SVGID_00000174589013985783987560000008955824884337688757_);fill:#7AA7D9;}
	.st16{fill:#12254B;stroke:#FFFFFF;stroke-width:9;stroke-miterlimit:10;}
	.st17{clip-path:url(#SVGID_00000137132112947526980860000017598827293316518833_);fill:#12254B;}
	.st18{clip-path:url(#SVGID_00000137132112947526980860000017598827293316518833_);fill:#DDDDDD;}
	.st19{clip-path:url(#SVGID_00000137132112947526980860000017598827293316518833_);fill:#F1625D;}
	.st20{clip-path:url(#SVGID_00000137132112947526980860000017598827293316518833_);fill:#EBD44F;}
	.st21{clip-path:url(#SVGID_00000137132112947526980860000017598827293316518833_);fill:#4DBA76;}
	.st22{clip-path:url(#SVGID_00000137132112947526980860000017598827293316518833_);fill:#21AF7D;}
	.st23{clip-path:url(#SVGID_00000137132112947526980860000017598827293316518833_);fill:#E4368C;}
	.st24{clip-path:url(#SVGID_00000137132112947526980860000017598827293316518833_);fill:#2563A1;}
	.st25{clip-path:url(#SVGID_00000137132112947526980860000017598827293316518833_);fill:#D2D2D2;}
	.st26{fill:#12254B;}
	.st27{fill:#FFFFFF;stroke:#ACC9E9;stroke-width:5;stroke-miterlimit:10;}
	.st28{fill:#DDEEFA;}
	.st29{fill:#B5D3EF;}
	.st30{fill:#FFFFFF;stroke:#C1CFE2;stroke-miterlimit:10;}
	.st31{fill:#F8FAFB;}
	.st32{fill:none;stroke:#F9F9FA;stroke-width:2;stroke-miterlimit:10;}
	.st33{fill:#F7F8F8;}
	.st34{fill:#EFAC97;}
	.st35{fill:#1D2C5C;}
	.st36{fill:#092041;}
	.st37{fill:#DBDCDA;}
	.st38{fill:#DCDCDA;}
	.st39{fill:#F9FBFC;}
	.st40{fill:#EDDE70;}
	.st41{fill:#F6F7F7;}
	.st42{fill:#D38C79;}
	.st43{fill:#223369;}
	.st44{clip-path:url(#SVGID_00000109733342772456139200000004946792547029491610_);fill:#1D2C5C;}
	.st45{clip-path:url(#SVGID_00000109733342772456139200000004946792547029491610_);fill:#1F376A;}
	.st46{fill:#5495D0;}
</style>
<g>
	<path class="st0" d="M3278.1,433.6c0,0,118.3,94,288.3,98.7c187,5.2,274.1-87.1,274.1-87.1"/>
	<path class="st0" d="M2429.8,457.5c0,0,132.5,90.4,294.6,87.3c208.7-3.9,311-169.2,311-169.2"/>
	<path class="st0" d="M2575.3,647c0,0,110.5,8.3,268.8-27.1c203.7-45.6,225.9-155.8,225.9-155.8"/>
	<path class="st0" d="M2531.5,261.6c0,0,82.1,72.7,210.2,117.4c128.6,44.9,237.6-0.7,237.6-0.7"/>
	<path class="st0" d="M2658,215.4c0,0,141.9,117.1,276,96.6c133-20.4,227.1-100.4,227.1-100.4"/>
	<path class="st0" d="M3237.6,373.1c0,0,111.9,51.6,242.5,14.7c187.1-52.8,199.2-175.4,199.2-175.4"/>
	<path class="st0" d="M3303.7,481.4c0,0,53.4,96.8,166.3,172.1c125.8,83.9,235.7,63.6,235.7,63.6"/>
	<g>
		<g>
			<rect x="3112.6" y="658.8" class="st1" width="90" height="154"/>
		</g>
		<g>
			<rect x="3112.6" y="658.8" class="st2" width="90" height="78"/>
		</g>
		<g>
			<defs>
				<rect id="SVGID_1_" x="2754.6" y="162.5" width="802.2" height="542.4"/>
			</defs>
			<clipPath id="SVGID_00000148642194823573474290000002473657682719382942_">
				<use xlink:href="#SVGID_1_"  style="overflow:visible;"/>
			</clipPath>
			<g style="clip-path:url(#SVGID_00000148642194823573474290000002473657682719382942_);">
				<rect x="2754.6" y="162.5" class="st4" width="802.2" height="542.4"/>
			</g>
			<g style="clip-path:url(#SVGID_00000148642194823573474290000002473657682719382942_);">
				<rect x="2754.6" y="162.5" class="st5" width="802.2" height="198.1"/>
			</g>
			<g style="clip-path:url(#SVGID_00000148642194823573474290000002473657682719382942_);">
				<rect x="3006.2" y="379.5" class="st5" width="188.6" height="96.5"/>
			</g>
			<g style="clip-path:url(#SVGID_00000148642194823573474290000002473657682719382942_);">
				<g>
					<path class="st4" d="M3194.7,245.6h-8v3h5v7.2h3V245.6L3194.7,245.6z M3178.7,245.6h-8v3h8V245.6L3178.7,245.6z M3162.7,245.6
						h-8v3h8V245.6L3162.7,245.6z M3146.7,245.6h-8v3h8V245.6L3146.7,245.6z M3130.7,245.6h-8v3h8V245.6L3130.7,245.6z
						 M3114.7,245.6h-8v3h8V245.6L3114.7,245.6z M3098.7,245.6h-8v3h8V245.6L3098.7,245.6z M3082.7,245.6h-8v3h8V245.6L3082.7,245.6
						z M3066.7,245.6h-8v3h8V245.6L3066.7,245.6z M3050.7,245.6h-8v3h8V245.6L3050.7,245.6z M3034.7,245.6h-8v3h8V245.6
						L3034.7,245.6z M3018.7,245.6h-8v3h8V245.6L3018.7,245.6z M3009.2,249h-3v8h3V249L3009.2,249z M3009.2,265h-3v8h3V265
						L3009.2,265z M3009.2,281h-3v8h3V281L3009.2,281z M3009.2,297h-3v8h3V297L3009.2,297z M3009.2,313h-3v8h3V313L3009.2,313z
						 M3009.2,329h-3v8h3V329L3009.2,329z M3017.1,339.1h-8v3h8V339.1L3017.1,339.1z M3033.1,339.1h-8v3h8V339.1L3033.1,339.1z
						 M3049.1,339.1h-8v3h8V339.1L3049.1,339.1z M3065.1,339.1h-8v3h8V339.1L3065.1,339.1z M3081.1,339.1h-8v3h8V339.1L3081.1,339.1
						z M3097.1,339.1h-8v3h8V339.1L3097.1,339.1z M3113.1,339.1h-8v3h8V339.1L3113.1,339.1z M3129.1,339.1h-8v3h8V339.1
						L3129.1,339.1z M3145.1,339.1h-8v3h8V339.1L3145.1,339.1z M3161.1,339.1h-8v3h8V339.1L3161.1,339.1z M3177.1,339.1h-8v3h8
						V339.1L3177.1,339.1z M3193.1,339.1h-8v3h8V339.1L3193.1,339.1z M3194.7,327.8h-3v8h3V327.8L3194.7,327.8z M3194.7,311.8h-3v8
						h3V311.8L3194.7,311.8z M3194.7,295.8h-3v8h3V295.8L3194.7,295.8z M3194.7,279.8h-3v8h3V279.8L3194.7,279.8z M3194.7,263.8h-3
						v8h3V263.8L3194.7,263.8z"/>
				</g>
			</g>
			<g style="clip-path:url(#SVGID_00000148642194823573474290000002473657682719382942_);">
				<rect x="3006.2" y="493.8" class="st5" width="98.8" height="96.5"/>
			</g>
			<g style="clip-path:url(#SVGID_00000148642194823573474290000002473657682719382942_);">
				<rect x="3213.5" y="379.5" class="st5" width="106.2" height="96.5"/>
			</g>
			<g style="clip-path:url(#SVGID_00000148642194823573474290000002473657682719382942_);">
				<rect x="3213.5" y="245.3" class="st4" width="106.2" height="96.5"/>
			</g>
			<g style="clip-path:url(#SVGID_00000148642194823573474290000002473657682719382942_);">
				<rect x="3123.8" y="493.8" class="st5" width="196" height="96.5"/>
			</g>
			<g style="clip-path:url(#SVGID_00000148642194823573474290000002473657682719382942_);">
				<rect x="3005.9" y="608" class="st6" width="313.2" height="17.9"/>
			</g>
			<g style="clip-path:url(#SVGID_00000148642194823573474290000002473657682719382942_);">
				<rect x="3005.9" y="638.2" class="st6" width="313.2" height="17.9"/>
			</g>
			<g style="clip-path:url(#SVGID_00000148642194823573474290000002473657682719382942_);">
				<rect x="3005.9" y="668.5" class="st6" width="313.2" height="17.9"/>
			</g>
			
				<rect x="2751.9" y="160.1" style="clip-path:url(#SVGID_00000148642194823573474290000002473657682719382942_);fill:#DDDDDD;" width="807.5" height="42.4"/>
			
				<circle style="clip-path:url(#SVGID_00000148642194823573474290000002473657682719382942_);fill:#F1625D;" cx="2786" cy="190.2" r="5.7"/>
			
				<circle style="clip-path:url(#SVGID_00000148642194823573474290000002473657682719382942_);fill:#EBD44F;" cx="2803.8" cy="190.2" r="5.7"/>
			
				<circle style="clip-path:url(#SVGID_00000148642194823573474290000002473657682719382942_);fill:#4DBA76;" cx="2821.5" cy="190.2" r="5.7"/>
		</g>
		<g>
			<path class="st1" d="M3545.1,177.8v514h-775v-514H3545.1 M3555.4,152.8h-795.5c-8.1,0-14.7,6.6-14.7,14.7v534.5
				c0,8.1,6.6,14.7,14.7,14.7h795.5c8.1,0,14.7-6.6,14.7-14.7V167.5C3570.1,159.4,3563.5,152.8,3555.4,152.8L3555.4,152.8z"/>
		</g>
		<g>
			<rect x="3030.6" y="805.8" class="st11" width="254" height="11"/>
		</g>
	</g>
	<g class="st12">
		<defs>
			<path id="SVGID_00000098190731376771902720000014917260872750472878_" class="st12" d="M3555.2,716.9h-795.5
				c-8.1,0-14.7-6.6-14.7-14.7V167.6c0-8.1,6.6-14.7,14.7-14.7h795.5c8.1,0,14.7,6.6,14.7,14.7v534.5
				C3570,710.3,3563.4,716.9,3555.2,716.9z"/>
		</defs>
		<clipPath id="SVGID_00000066481508978740649540000014900319342966472125_">
			<use xlink:href="#SVGID_00000098190731376771902720000014917260872750472878_"  style="overflow:visible;"/>
		</clipPath>
		<path style="clip-path:url(#SVGID_00000066481508978740649540000014900319342966472125_);fill:#010101;" d="M3082,399.7l44.2-85.8
			l-170.8-88.1l-44.2,85.8l37,19.1c-1,1.6-0.5,6.2-0.5,8.5c0,2.1,0.6,6.3,1.9,8.4c-0.1,2.2,0.1,3.6,0.1,3.6c-3,7-21,33-29,43
			c-6.1,7.6-14.4,15.1-18.1,18.4c-3.9-1.4-6.9-1.4-6.9-1.4l-13,12c0,0,0.1,1.2,0.8,3.2c-6.7,4-14,7.1-20.8,7.8
			c-9.7,1.1-16,1.6-24,3.2l-5-9.2c0,0-1.6,0.6-4.7,1.4l0.4-8.6c2.7,0.1,5.5-0.4,8.4-1.9c7.3-3.5,7.9-15.1,8.9-24l6,0.6l4.5-12.2
			l-10-0.4c0-4-0.1-8.1-0.2-11c2.3-0.7,4.8-1.8,7.2-3.1c-0.2,0.1-0.3,0.3-0.5,0.4c0,0,3.7-1.7,8-6c0.4-0.4,0.7-0.7,1.1-1.1
			c0.8-0.9,1.6-1.8,2.3-2.8c4.2-5.5,8-13.7,8.6-25.3c0.1-1.2,0.1-1.9,0.1-1.9s-15,13-25,15c0,0,5.5-4.4,9.2-9.9
			c0.8-1.1,1.4-2.1,1.8-3.1c0,0-24,7-32,8s-26,4-33,10s-11,13-11,13s-4,8-4,15s6,20,13,28s7.2,11.5,7.2,11.5s0,0,0.1,0l-1.6,12.5
			c-4.1-0.4-5.7-1-5.7-1l-1.8,10.9c0,0,0.4,0.2,1.1,0.4c-16.5,1-28.2,2.4-37.3,9.7c-8.3,6.7-22.9,22.3-27.5,27.4
			c-1.5-0.9-2.5-1.4-2.5-1.4l-12,13c0.9,2.1,1.8,4,2.8,5.8c-2.4,3.3-8,10.5-14.8,14.2c-6.8,3.8-31.9,12.1-45.1,16.4
			c0-0.4,0.1-0.8,0.1-1.2c0-7.3-5.9-13.2-13.2-13.2c-3.1,0-5.9,1.1-8.2,2.8l-23.8-27.2l-7-51.2l-3,0.4l6.4,46.7l-31.6-36l-2.3,2
			l34.6,39.5l5,36.8c-2.9,0.9-5.3,2.8-7,5.3c-1.9,3-2.6,6.5-1.9,10c0.7,3.5,2.7,6.4,5.7,8.4c2.2,1.4,4.7,2.2,7.3,2.2
			c0.9,0,1.8-0.1,2.7-0.3c3.5-0.7,6.4-2.7,8.4-5.7c0.7-1,1.2-2.1,1.5-3.2c4,0.4,8.3,1.1,12.4,0.5c5.3-0.8,10.6-0.9,14.6-2.7
			c11.9-1.1,27.6-4.6,31.4-5.3c6-1,22-7,28-12c3.7-3.1,9.2-8.7,13-12.7c1.8,1.2,3,1.7,3,1.7l14-12c0,0-1-1.9-2.6-4.4l16.6-11.6
			c0,0-3,13-10,42s-23,58-23,58s2.4,1,6.8,2.5c-0.7,1.5-1.6,3.2-2.6,5.1l-0.3,0.4c0,0,0,0,0,0c-7.4,15-20.2,43.2-32,80
			c-18,56-114,125-114,125s-1.9,1.8-1.2,6.4l-3.3,1.8l-7.9,1.4c-0.6,0-1.3,0.1-1.8,0.4c-1.5-1.1-2.9-1.4-2.9-1.4s-4.9,1.1-7.8,7.8
			c-3,6.7-3.8,19.7-4.6,27s7,25.6,14.3,26.2c0.2,0,0.5,0,0.7-0.1c0.8,0.2,1.6,0.4,2.4,0.4c6.6,0,9.4-13.3,10.9-18.6
			c3.5-11.7,5.1-13.2,6.6-24.6l3.4-2.2c1.8,1.3,3.5,1.4,5.3,0.6c0.3-0.1,0.6-0.3,0.9-0.6c8.4-5.5,70.7-46.7,93.1-64.4
			c24-19,75-108,75-108s47,91,48,105s-5,36-8,65s-15,99-15,99s0.9,0.2,2.4,0.5l-2.3,11.7c-1.9-0.5-2.9-0.9-2.9-0.9l-4,14.3
			c-0.6,2.3,0.6,4.7,2.9,5.4c4.9,1.6,13.7,4.2,23.8,5.1c15.4,1.5,32.9-2.2,32.9-2.2s2.2-8.8-5.9-9.5c-8-0.7-24.1-9.5-24.1-11.7
			c-0.5,0.1-0.9,0.2-1.4,0.3l0.4-10.9c2.9-0.1,5.7-0.4,8.2-1.1c0,0,24-134,26-151s1.7-36.3-1-51c-3.5-19.1-15.6-74.4-22.3-105
			c0.2,0,0.3,0,0.3,0l-0.6-5c8.1,1.3,13.6,2,13.6,2c-3-17-2-50,0-67s16-66,34-78c12.2-8.1,21.6-18.1,27.4-24.3
			c2.7,0.9,4.6,1.3,4.6,1.3l14-10c0,0-0.4-3.2-2.1-7c4.8-4.1,10.3-9.3,14.1-14c7.7-9.6,26.4-45.9,29.7-55.9c1.8-2.8,6-9.4,8.3-14
			L3082,399.7z M2652.7,526.4c0,0.8-0.1,1.5-0.2,2.2c-2.5,0.8-4.2,1.4-4.8,1.5c0,0-6.8,0-14.8,0c-0.5-1.2-0.7-2.4-0.7-3.8
			c0-5.7,4.6-10.2,10.2-10.2S2652.7,520.8,2652.7,526.4z M2632.2,518.1c-1.8,2.3-2.9,5.2-2.9,8.3c0,1.3,0.2,2.6,0.5,3.8
			c-0.7,0-1.4,0-2,0c-0.5,0-1,0-1.5,0.1c-0.7-0.7-1.4-1.3-2.2-1.8c-2.5-1.7-5.4-2.4-8.4-2.1l-4.4-32.1L2632.2,518.1z M2625.3,545.2
			L2625.3,545.2c-1.5,2.3-3.8,3.8-6.5,4.4c-2.7,0.5-5.4,0-7.7-1.5c-2.3-1.5-3.8-3.8-4.4-6.5c-0.6-2.7,0-5.4,1.5-7.7
			c1.5-2.3,3.8-3.8,6.5-4.4c0.7-0.1,1.4-0.2,2.1-0.2c2,0,3.9,0.6,5.6,1.7c0.1,0.1,0.2,0.2,0.4,0.3c-6.9,3-10.8,11.7-10,15
			c1,4,4,0,9-2c1.3-0.5,2.8-0.7,4.5-0.7C2625.9,544.1,2625.7,544.6,2625.3,545.2z M2851.3,393.5l-4.5-0.4c0.2-1.8,0.3-3.9,0.3-6.1
			l7.1-1.5L2851.3,393.5z M2952.9,333.9c-0.2-0.4-0.4-0.8-0.6-1.1l0.9,0.5C2953.1,333.5,2953,333.7,2952.9,333.9z"/>
	</g>
	<g>
		<path class="st4" d="M2529.4,273.3l-47.6,0.5c-6.1,0.1-11.2-4.9-11.2-11l-0.5-47.6c-0.1-6.1,4.9-11.2,11-11.2l47.6-0.5
			c6.1-0.1,11.2,4.9,11.2,11l0.5,47.6C2540.4,268.2,2535.5,273.3,2529.4,273.3z"/>
		<g>
			<path class="st14" d="M2528.3,206.4l-46.8,0.5c-4.8,0-8.6,4-8.5,8.7l0.5,46.8c0,4.8,4,8.6,8.7,8.5l23.1-0.2l-0.2-22.9l-5.9,0.1
				c-0.8,0-1.4-0.6-1.4-1.4l-0.1-7.4c0-0.8,0.6-1.4,1.4-1.4l5.9-0.1l-0.1-7.1c-0.1-8.3,4.9-12.8,12.3-12.9l6.1-0.1
				c0.8,0,1.4,0.6,1.4,1.4l0.1,6.2c0,0.8-0.6,1.4-1.4,1.4l-3.7,0c-4,0-4.8,2-4.7,4.8l0.1,6.2l8.8-0.1c0.8,0,1.5,0.7,1.4,1.6
				l-0.8,7.4c-0.1,0.7-0.7,1.2-1.4,1.3l-7.9,0.1l0.2,22.9l13.7-0.1c4.8,0,8.6-4,8.5-8.7l-0.5-46.8
				C2536.9,210.2,2533,206.4,2528.3,206.4L2528.3,206.4z M2528.3,206.4"/>
		</g>
	</g>
	<g>
		<path class="st4" d="M2686.2,254.7h-43.6c-7.2,0-13.1-5.9-13.1-13.1V198c0-7.2,5.9-13.1,13.1-13.1h43.6c7.2,0,13.1,5.9,13.1,13.1
			v43.6C2699.3,248.8,2693.4,254.7,2686.2,254.7z"/>
		<g>
			<g>
				<defs>
					<rect id="SVGID_00000183954982891249771430000009863636976230098071_" x="2637.5" y="197.4" width="53.9" height="44.9"/>
				</defs>
				<clipPath id="SVGID_00000116951274140386040590000016116276833492899733_">
					<use xlink:href="#SVGID_00000183954982891249771430000009863636976230098071_"  style="overflow:visible;"/>
				</clipPath>
				<path style="clip-path:url(#SVGID_00000116951274140386040590000016116276833492899733_);fill:#7AA7D9;" d="M2690.4,202.6
					c-1.2,0.5-2.4,0.9-3.7,1.3c1.4-1.3,2.5-3,3.1-4.9c0.2-0.5-0.4-1-0.9-0.7c-1.8,1.1-3.7,1.8-5.7,2.3c-0.1,0-0.2,0-0.4,0
					c-0.4,0-0.7-0.1-1-0.4c-2.1-1.9-4.8-2.9-7.7-2.9c-1.2,0-2.5,0.2-3.7,0.6c-3.8,1.2-6.7,4.3-7.6,8.1c-0.3,1.4-0.4,2.9-0.3,4.3
					c0,0.2-0.1,0.3-0.1,0.3c-0.1,0.1-0.2,0.1-0.3,0.1c0,0,0,0,0,0c-8.2-0.8-15.7-4.7-20.9-11.2c-0.3-0.3-0.8-0.3-1,0.1
					c-1,1.8-1.6,3.8-1.6,5.8c0,3.1,1.3,6.1,3.5,8.3c-0.9-0.2-1.8-0.6-2.6-1c-0.4-0.2-0.9,0.1-0.9,0.5c-0.1,4.7,2.7,8.8,6.8,10.7
					c-0.1,0-0.2,0-0.2,0c-0.6,0-1.3-0.1-2-0.2c-0.5-0.1-0.8,0.3-0.7,0.8c1.3,4.2,4.9,7.2,9.2,7.9c-3.6,2.4-7.7,3.6-12,3.6l-1.3,0
					c-0.4,0-0.8,0.3-0.9,0.7c-0.1,0.4,0.1,0.8,0.4,1c4.9,2.8,10.4,4.3,16,4.3c4.9,0,9.5-1,13.7-2.9c3.8-1.8,7.2-4.3,10-7.5
					c2.6-3,4.7-6.4,6.1-10.3c1.4-3.6,2.1-7.5,2.1-11.2v-0.2c0-0.6,0.3-1.2,0.7-1.5c1.8-1.4,3.3-3.2,4.6-5.1
					C2691.5,203,2691,202.3,2690.4,202.6L2690.4,202.6z M2690.4,202.6"/>
			</g>
		</g>
	</g>
	<g>
		<path class="st16" d="M2660.5,576.2h-384.3c-6.6,0-12-5.4-12-12V313.1c0-6.6,5.4-12,12-12h384.3c6.6,0,12,5.4,12,12v251.1
			C2672.5,570.8,2667.1,576.2,2660.5,576.2z"/>
		<g>
			<defs>
				<path id="SVGID_00000106115997762315640700000006637290010112958605_" d="M2660.5,576.2h-384.3c-6.6,0-12-5.4-12-12V313.1
					c0-6.6,5.4-12,12-12h384.3c6.6,0,12,5.4,12,12v251.1C2672.5,570.8,2667.1,576.2,2660.5,576.2z"/>
			</defs>
			<clipPath id="SVGID_00000047018316062366124520000000710752478453922181_">
				<use xlink:href="#SVGID_00000106115997762315640700000006637290010112958605_"  style="overflow:visible;"/>
			</clipPath>
			<path style="clip-path:url(#SVGID_00000047018316062366124520000000710752478453922181_);fill:#12254B;" d="M2660.5,576.2h-384.3
				c-6.6,0-12-5.4-12-12V313.1c0-6.6,5.4-12,12-12h384.3c6.6,0,12,5.4,12,12v251.1C2672.5,570.8,2667.1,576.2,2660.5,576.2z"/>
			
				<rect x="2252.4" y="292.4" style="clip-path:url(#SVGID_00000047018316062366124520000000710752478453922181_);fill:#DDDDDD;" width="429.6" height="25.9"/>
			
				<circle style="clip-path:url(#SVGID_00000047018316062366124520000000710752478453922181_);fill:#F1625D;" cx="2275.8" cy="310.6" r="3.8"/>
			
				<circle style="clip-path:url(#SVGID_00000047018316062366124520000000710752478453922181_);fill:#EBD44F;" cx="2287.6" cy="310.6" r="3.8"/>
			
				<circle style="clip-path:url(#SVGID_00000047018316062366124520000000710752478453922181_);fill:#4DBA76;" cx="2299.4" cy="310.6" r="3.8"/>
			<path style="clip-path:url(#SVGID_00000047018316062366124520000000710752478453922181_);fill:#21AF7D;" d="M2409.8,357.9h-96.2
				c-2.7,0-5-2.2-5-5l0,0c0-2.7,2.2-5,5-5h96.2c2.7,0,5,2.2,5,5l0,0C2414.8,355.6,2412.5,357.9,2409.8,357.9z"/>
			<path style="clip-path:url(#SVGID_00000047018316062366124520000000710752478453922181_);fill:#E4368C;" d="M2497.8,357.9h-70.1
				c-2.7,0-5-2.2-5-5l0,0c0-2.7,2.2-5,5-5h70.1c2.7,0,5,2.2,5,5l0,0C2502.8,355.6,2500.6,357.9,2497.8,357.9z"/>
			<path style="clip-path:url(#SVGID_00000047018316062366124520000000710752478453922181_);fill:#2563A1;" d="M2545.1,357.9h-29.3
				c-2.7,0-5-2.2-5-5l0,0c0-2.7,2.2-5,5-5h29.3c2.7,0,5,2.2,5,5l0,0C2550.1,355.6,2547.9,357.9,2545.1,357.9z"/>
			<path style="clip-path:url(#SVGID_00000047018316062366124520000000710752478453922181_);fill:#D2D2D2;" d="M2409.8,432.7h-96.2
				c-2.7,0-5-2.2-5-5l0,0c0-2.7,2.2-5,5-5h96.2c2.7,0,5,2.2,5,5l0,0C2414.8,430.4,2412.5,432.7,2409.8,432.7z"/>
			<path style="clip-path:url(#SVGID_00000047018316062366124520000000710752478453922181_);fill:#D2D2D2;" d="M2409.8,528.6h-96.2
				c-2.7,0-5-2.2-5-5l0,0c0-2.7,2.2-5,5-5h96.2c2.7,0,5,2.2,5,5l0,0C2414.8,526.4,2412.5,528.6,2409.8,528.6z"/>
			<path style="clip-path:url(#SVGID_00000047018316062366124520000000710752478453922181_);fill:#D2D2D2;" d="M2487.5,528.6h-59.4
				c-2.7,0-5-2.2-5-5l0,0c0-2.7,2.2-5,5-5h59.4c2.7,0,5,2.2,5,5l0,0C2492.5,526.4,2490.3,528.6,2487.5,528.6z"/>
			<path style="clip-path:url(#SVGID_00000047018316062366124520000000710752478453922181_);fill:#D2D2D2;" d="M2565.3,528.6h-59.4
				c-2.7,0-5-2.2-5-5l0,0c0-2.7,2.2-5,5-5h59.4c2.7,0,5,2.2,5,5l0,0C2570.3,526.4,2568,528.6,2565.3,528.6z"/>
			<path style="clip-path:url(#SVGID_00000047018316062366124520000000710752478453922181_);fill:#2563A1;" d="M2497.8,432.7h-70.1
				c-2.7,0-5-2.2-5-5l0,0c0-2.7,2.2-5,5-5h70.1c2.7,0,5,2.2,5,5l0,0C2502.8,430.4,2500.6,432.7,2497.8,432.7z"/>
			<path style="clip-path:url(#SVGID_00000047018316062366124520000000710752478453922181_);fill:#21AF7D;" d="M2566.5,432.7h-50.8
				c-2.7,0-5-2.2-5-5l0,0c0-2.7,2.2-5,5-5h50.8c2.7,0,5,2.2,5,5l0,0C2571.5,430.4,2569.3,432.7,2566.5,432.7z"/>
			<path style="clip-path:url(#SVGID_00000047018316062366124520000000710752478453922181_);fill:#21AF7D;" d="M2413.4,481.2h-50.8
				c-2.7,0-5-2.2-5-5l0,0c0-2.7,2.2-5,5-5h50.8c2.7,0,5,2.2,5,5l0,0C2418.4,478.9,2416.1,481.2,2413.4,481.2z"/>
			<path style="clip-path:url(#SVGID_00000047018316062366124520000000710752478453922181_);fill:#2563A1;" d="M2413.4,504.6h-50.8
				c-2.7,0-5-2.2-5-5v0c0-2.7,2.2-5,5-5h50.8c2.7,0,5,2.2,5,5v0C2418.4,502.3,2416.1,504.6,2413.4,504.6z"/>
			<path style="clip-path:url(#SVGID_00000047018316062366124520000000710752478453922181_);fill:#21AF7D;" d="M2400.9,382.7h-69.4
				c-2.7,0-5-2.2-5-5l0,0c0-2.7,2.2-5,5-5h69.4c2.7,0,5,2.2,5,5l0,0C2405.9,380.5,2403.7,382.7,2400.9,382.7z"/>
			<path style="clip-path:url(#SVGID_00000047018316062366124520000000710752478453922181_);fill:#E4368C;" d="M2570.4,382.7h-74.5
				c-2.7,0-5-2.2-5-5l0,0c0-2.7,2.2-5,5-5h74.5c2.7,0,5,2.2,5,5l0,0C2575.4,380.5,2573.2,382.7,2570.4,382.7z"/>
			<path style="clip-path:url(#SVGID_00000047018316062366124520000000710752478453922181_);fill:#2563A1;" d="M2478.2,382.7h-59.7
				c-2.7,0-5-2.2-5-5v0c0-2.7,2.2-5,5-5h59.7c2.7,0,5,2.2,5,5v0C2483.2,380.5,2481,382.7,2478.2,382.7z"/>
			<path style="clip-path:url(#SVGID_00000047018316062366124520000000710752478453922181_);fill:#D2D2D2;" d="M2388.5,407.8h-57
				c-2.7,0-5-2.2-5-5v0c0-2.7,2.2-5,5-5h57c2.7,0,5,2.2,5,5v0C2393.5,405.6,2391.3,407.8,2388.5,407.8z"/>
			<path style="clip-path:url(#SVGID_00000047018316062366124520000000710752478453922181_);fill:#D2D2D2;" d="M2611.4,407.8h-96.6
				c-2.7,0-5-2.2-5-5v0c0-2.7,2.2-5,5-5h96.6c2.7,0,5,2.2,5,5v0C2616.4,405.6,2614.2,407.8,2611.4,407.8z"/>
			<path style="clip-path:url(#SVGID_00000047018316062366124520000000710752478453922181_);fill:#D2D2D2;" d="M2496.4,407.8h-89.7
				c-2.7,0-5-2.2-5-5v0c0-2.7,2.2-5,5-5h89.7c2.7,0,5,2.2,5,5v0C2501.4,405.6,2499.1,407.8,2496.4,407.8z"/>
			<path style="clip-path:url(#SVGID_00000047018316062366124520000000710752478453922181_);fill:#E4368C;" d="M2380.6,456.7h-49
				c-2.7,0-5-2.2-5-5v0c0-2.7,2.2-5,5-5h49c2.7,0,5,2.2,5,5v0C2385.6,454.5,2383.4,456.7,2380.6,456.7z"/>
			<path style="clip-path:url(#SVGID_00000047018316062366124520000000710752478453922181_);fill:#D2D2D2;" d="M2481,456.7h-81.3
				c-2.7,0-5-2.2-5-5v0c0-2.7,2.2-5,5-5h81.3c2.7,0,5,2.2,5,5v0C2486,454.5,2483.8,456.7,2481,456.7z"/>
		</g>
	</g>
	<g>
		<g>
			<path class="st4" d="M3666.9,739.3c-14.7,0-26.6-11.9-26.6-26.6s11.9-26.6,26.6-26.6h202.2c14.7,0,26.6,11.9,26.6,26.6
				s-11.9,26.6-26.6,26.6H3666.9z"/>
			<path class="st5" d="M3869.1,688.6c13.3,0,24.1,10.8,24.1,24.1s-10.8,24.1-24.1,24.1h-202.2c-13.3,0-24.1-10.8-24.1-24.1
				c0-13.3,10.8-24.1,24.1-24.1H3869.1 M3869.1,683.6h-202.2c-16.1,0-29.1,13-29.1,29.1v0c0,16.1,13,29.1,29.1,29.1h202.2
				c16.1,0,29.1-13,29.1-29.1v0C3898.2,696.6,3885.2,683.6,3869.1,683.6L3869.1,683.6z"/>
		</g>
		<g>
			<path class="st26" d="M3725.5,707.4c-0.2-1.4-1.4-3.2-4-3.2c-2.1,0-3.7,1.4-3.7,3.2c0,1.4,0.8,2.4,2.4,2.8l2.8,0.6
				c3.2,0.7,4.9,2.7,4.9,5.3c0,3-2.5,5.6-6.6,5.6c-4.6,0-6.8-3-7.1-5.7l2.5-0.8c0.2,2.1,1.7,4.1,4.6,4.1c2.6,0,3.9-1.4,3.9-3
				c0-1.4-0.9-2.5-2.8-3l-2.7-0.6c-2.7-0.6-4.6-2.4-4.6-5.2c0-3,2.8-5.7,6.3-5.7c4.3,0,6,2.7,6.4,4.7L3725.5,707.4z"/>
			<path class="st26" d="M3731.6,721.2v-19h11.6v2.4h-8.9v5.8h8.1v2.5h-8.1v5.8h8.9v2.4H3731.6z"/>
			<path class="st26" d="M3758.3,715.9h-8.4l-2,5.3h-2.8l7.6-19h3l7.6,19h-2.8L3758.3,715.9z M3750.8,713.5h6.5l-3.3-8.5
				L3750.8,713.5z"/>
			<path class="st26" d="M3771.4,713.4h-2.8v7.8h-2.7v-19h7.2c3.6,0,5.8,2.5,5.8,5.7c0,2.7-1.7,4.9-4.6,5.4l4.5,8h-3.1L3771.4,713.4
				z M3772.6,711.1c2.1,0,3.6-1.3,3.6-3.2c0-2-1.4-3.3-3.6-3.3h-4v6.5H3772.6z"/>
			<path class="st26" d="M3781.1,711.7c0-6.4,4.7-9.9,9.4-9.9c4.3,0,7.4,2.4,8.4,6l-2.4,0.9c-0.7-2.9-2.8-4.5-5.9-4.5
				c-3.5,0-6.8,2.5-6.8,7.5c0,5,3.3,7.5,6.8,7.5c3.2,0,5.3-2,6.1-4.6l2.3,0.9c-1,3.6-4,6.1-8.4,6.1
				C3785.7,721.6,3781.1,718.1,3781.1,711.7z"/>
			<path class="st26" d="M3814.8,721.2v-8.5h-9.7v8.5h-2.6v-19h2.6v8.1h9.7v-8.1h2.6v19H3814.8z"/>
		</g>
		<g>
			<g>
				<path class="st4" d="M3676.4,718.9c-6.2,0-11.3-5-11.3-11.3s5-11.3,11.3-11.3c6.2,0,11.3,5,11.3,11.3S3682.6,718.9,3676.4,718.9
					z"/>
				<path class="st5" d="M3676.4,697.9c5.4,0,9.8,4.4,9.8,9.8c0,5.4-4.4,9.8-9.8,9.8s-9.8-4.4-9.8-9.8
					C3666.6,702.2,3671,697.9,3676.4,697.9 M3676.4,694.9c-7,0-12.8,5.7-12.8,12.8c0,7,5.7,12.8,12.8,12.8c7,0,12.8-5.7,12.8-12.8
					C3689.2,700.6,3683.4,694.9,3676.4,694.9L3676.4,694.9z"/>
			</g>
			<line class="st27" x1="3692.5" y1="732" x2="3682" y2="716.8"/>
		</g>
	</g>
	<g>
		<g>
			<rect x="3640.3" y="307.1" class="st4" width="306.9" height="337"/>
			<path class="st5" d="M3944.7,309.6v332h-301.9v-332H3944.7 M3949.7,304.6h-5h-301.9h-5v5v332v5h5h301.9h5v-5v-332V304.6
				L3949.7,304.6z"/>
		</g>
		<path class="st28" d="M3784.9,421.6h-116.1c-2.8,0-5.1-2.3-5.1-5.1v-11.1c0-2.8,2.3-5.1,5.1-5.1h116.1c2.8,0,5.1,2.3,5.1,5.1v11.1
			C3790,419.3,3787.7,421.6,3784.9,421.6z"/>
		<path class="st29" d="M3719.9,394.3h-51.1c-2.8,0-5.1-2.3-5.1-5.1l0,0c0-2.8,2.3-5.1,5.1-5.1h51.1c2.8,0,5.1,2.3,5.1,5.1l0,0
			C3725,392,3722.7,394.3,3719.9,394.3z"/>
		<path class="st29" d="M3752.9,344.9h-82.3c-3.8,0-6.9-3.1-6.9-6.9l0,0c0-3.8,3.1-6.9,6.9-6.9h82.3c3.8,0,6.9,3.1,6.9,6.9l0,0
			C3759.8,341.8,3756.7,344.9,3752.9,344.9z"/>
		<path class="st28" d="M3920.7,421.6h-116.1c-2.8,0-5.1-2.3-5.1-5.1v-11.1c0-2.8,2.3-5.1,5.1-5.1h116.1c2.8,0,5.1,2.3,5.1,5.1v11.1
			C3925.8,419.3,3923.5,421.6,3920.7,421.6z"/>
		<path class="st28" d="M3784.9,475.6h-116.1c-2.8,0-5.1-2.3-5.1-5.1v-11.1c0-2.8,2.3-5.1,5.1-5.1h116.1c2.8,0,5.1,2.3,5.1,5.1v11.1
			C3790,473.3,3787.7,475.6,3784.9,475.6z"/>
		<path class="st29" d="M3719.9,448.3h-51.1c-2.8,0-5.1-2.3-5.1-5.1l0,0c0-2.8,2.3-5.1,5.1-5.1h51.1c2.8,0,5.1,2.3,5.1,5.1l0,0
			C3725,446,3722.7,448.3,3719.9,448.3z"/>
		<path class="st28" d="M3784.9,529.2h-116.1c-2.8,0-5.1-2.3-5.1-5.1v-11.1c0-2.8,2.3-5.1,5.1-5.1h116.1c2.8,0,5.1,2.3,5.1,5.1v11.1
			C3790,526.9,3787.7,529.2,3784.9,529.2z"/>
		<path class="st29" d="M3719.9,501.9h-51.1c-2.8,0-5.1-2.3-5.1-5.1l0,0c0-2.8,2.3-5.1,5.1-5.1h51.1c2.8,0,5.1,2.3,5.1,5.1l0,0
			C3725,499.6,3722.7,501.9,3719.9,501.9z"/>
		<g>
			<path class="st29" d="M3844.2,615.4h-98.5c-2.4,0-4.3-1.9-4.3-4.3v-25.1c0-2.4,1.9-4.3,4.3-4.3h98.5c2.4,0,4.3,1.9,4.3,4.3v25.1
				C3848.5,613.5,3846.6,615.4,3844.2,615.4z"/>
		</g>
		<line class="st30" x1="3642.7" y1="362.8" x2="3945.2" y2="362.8"/>
		<line class="st30" x1="3642.7" y1="555.1" x2="3945.2" y2="555.1"/>
	</g>
	<g>
		<g>
			<path class="st5" d="M2429.4,676.1c-3,0-5.4-2.4-5.4-5.4v-49.9c0-3,2.4-5.4,5.4-5.4h170.4c3,0,5.4,2.4,5.4,5.4v49.9
				c0,3-2.4,5.4-5.4,5.4H2429.4z"/>
			<path class="st31" d="M2599.8,617.8c1.6,0,2.9,1.3,2.9,2.9v49.9c0,1.6-1.3,2.9-2.9,2.9h-170.4c-1.6,0-2.9-1.3-2.9-2.9v-49.9
				c0-1.6,1.3-2.9,2.9-2.9H2599.8 M2599.8,612.8h-170.4c-4.4,0-7.9,3.6-7.9,7.9v49.9c0,4.4,3.6,7.9,7.9,7.9h170.4
				c4.4,0,7.9-3.6,7.9-7.9v-49.9C2607.7,616.3,2604.2,612.8,2599.8,612.8L2599.8,612.8z"/>
		</g>
		<g>
			<path class="st26" d="M2480.8,658.7v-11.5h-12.7v11.5h-4.6v-27h4.6v11.1h12.7v-11.1h4.6v27H2480.8z"/>
			<path class="st26" d="M2502.4,636v22.7h-4.6V636h-8.7v-4.3h22.1v4.3H2502.4z"/>
			<path class="st26" d="M2540.1,658.7v-19.8l-8.4,19.8h-4l-8.3-19.8v19.8h-4.4v-27h6.1l8.7,20.6l8.6-20.6h6.2v27H2540.1z"/>
			<path class="st26" d="M2551,658.7v-27h4.6v22.6h12.4v4.3H2551z"/>
		</g>
	</g>
	<g>
		<g>
			<path class="st5" d="M3616.2,229.3c-3,0-5.4-2.4-5.4-5.4v-49.9c0-3,2.4-5.4,5.4-5.4h137.2c3,0,5.4,2.4,5.4,5.4v49.9
				c0,3-2.4,5.4-5.4,5.4H3616.2z"/>
			<path class="st31" d="M3753.4,171c1.6,0,2.9,1.3,2.9,2.9v49.9c0,1.6-1.3,2.9-2.9,2.9h-137.2c-1.6,0-2.9-1.3-2.9-2.9v-49.9
				c0-1.6,1.3-2.9,2.9-2.9H3753.4 M3753.4,166h-137.2c-4.4,0-7.9,3.6-7.9,7.9v49.9c0,4.4,3.6,7.9,7.9,7.9h137.2
				c4.4,0,7.9-3.6,7.9-7.9v-49.9C3761.4,169.6,3757.8,166,3753.4,166L3753.4,166z"/>
		</g>
		<g>
			<path class="st26" d="M3649.1,199.7c0-8.6,6.5-14.1,13.7-14.1c7.5,0,11.3,4.6,12.4,8.9l-4.9,1.6c-0.6-2.6-2.7-5.4-7.4-5.4
				c-4,0-8.3,2.9-8.3,9c0,5.7,4,8.9,8.4,8.9c4.6,0,6.8-3,7.6-5.5l4.9,1.5c-1,4.1-4.9,9.2-12.5,9.2
				C3655.4,213.7,3649.1,208.3,3649.1,199.7z"/>
			<path class="st26" d="M3693.2,194.1c-0.3-1.5-1.5-3.8-4.9-3.8c-2.5,0-4.2,1.6-4.2,3.4c0,1.5,1,2.7,2.9,3l3.8,0.7
				c4.9,1,7.5,4.1,7.5,7.9c0,4.1-3.5,8.3-9.7,8.3c-7.1,0-10.3-4.6-10.7-8.4l4.9-1.3c0.2,2.7,2.1,5.1,5.9,5.1c2.8,0,4.4-1.4,4.4-3.3
				c0-1.6-1.2-2.8-3.3-3.2l-3.8-0.8c-4.3-0.9-7.1-3.7-7.1-7.7c0-4.8,4.3-8.4,9.4-8.4c6.5,0,9,4,9.7,7L3693.2,194.1z"/>
			<path class="st26" d="M3716.1,194.1c-0.3-1.5-1.5-3.8-4.9-3.8c-2.5,0-4.2,1.6-4.2,3.4c0,1.5,1,2.7,2.9,3l3.8,0.7
				c4.9,1,7.5,4.1,7.5,7.9c0,4.1-3.5,8.3-9.7,8.3c-7.1,0-10.3-4.6-10.7-8.4l4.9-1.3c0.2,2.7,2.1,5.1,5.9,5.1c2.8,0,4.4-1.4,4.4-3.3
				c0-1.6-1.2-2.8-3.3-3.2l-3.8-0.8c-4.3-0.9-7.1-3.7-7.1-7.7c0-4.8,4.3-8.4,9.4-8.4c6.5,0,9.1,4,9.7,7L3716.1,194.1z"/>
		</g>
	</g>
	<g>
		<g>
			
				<rect x="2966.2" y="203.8" transform="matrix(0.4584 -0.8888 0.8888 0.4584 1366.1415 2841.4897)" class="st4" width="96.5" height="192.1"/>
		</g>
		<polygon class="st32" points="2841,381.1 2847.7,381.7 2851.5,371.5 2839.7,371 		"/>
		<polygon class="st33" points="2791.9,901.6 2787.8,921.7 2809.7,922.5 2810.6,899.8 		"/>
		<g>
			<g>
				<g>
					<path class="st5" d="M2638.2,526.8c-7.3,0-13.2-5.9-13.2-13.2c0-7.3,5.9-13.3,13.2-13.3s13.2,5.9,13.2,13.3
						C2651.5,520.9,2645.5,526.8,2638.2,526.8z M2638.2,503.3c-5.7,0-10.2,4.6-10.2,10.3c0,5.7,4.6,10.2,10.2,10.2
						s10.2-4.6,10.2-10.2C2648.5,507.9,2643.9,503.3,2638.2,503.3z"/>
				</g>
				<g>
					
						<rect x="2598.4" y="425.5" transform="matrix(0.7523 -0.6588 0.6588 0.7523 333.7113 1829.5856)" class="st5" width="3" height="90.9"/>
				</g>
			</g>
			<g>
				<g>
					<path class="st5" d="M2612.4,539.9c-2.6,0-5.1-0.7-7.3-2.2c-3-1.9-5-4.9-5.7-8.4c-0.7-3.5,0-7,1.9-10c1.9-3,4.9-5,8.4-5.7
						c3.5-0.7,7,0,10,1.9c3,1.9,5,4.9,5.7,8.4c0.7,3.5,0,7-1.9,10l0,0c-1.9,3-4.9,5-8.4,5.7C2614.2,539.8,2613.3,539.9,2612.4,539.9
						z M2612.5,516.4c-0.7,0-1.4,0.1-2.1,0.2c-2.7,0.6-5,2.1-6.5,4.4c-1.5,2.3-2,5-1.5,7.7c0.6,2.7,2.1,5,4.4,6.5
						c2.3,1.5,5,2,7.7,1.5c2.7-0.6,5-2.1,6.5-4.4v0c1.5-2.3,2-5,1.5-7.7c-0.6-2.7-2.1-5-4.4-6.5
						C2616.4,517,2614.5,516.4,2612.5,516.4z"/>
				</g>
				<g>
					
						<rect x="2602.4" y="424.6" transform="matrix(0.9907 -0.1359 0.1359 0.9907 -39.7203 358.2287)" class="st5" width="3" height="90.9"/>
				</g>
			</g>
		</g>
		<path class="st34" d="M2712.5,482.3c0,0-7,11-16,16s-50,18-53,19s-9,5-5,10s39-3,45-4s22-7,28-12c6-5,17-17,17-17L2712.5,482.3z"
			/>
		<path class="st34" d="M2896.5,401.3c0,0,12-10,20-20s26-36,29-43s9-5,9-5s4,0,2,8s-22,47-30,57s-24,22-24,22l-11-14L2896.5,401.3z
			"/>
		<path class="st26" d="M2580.5,785.3c0,0-3.8,3.6,1.2,13.8c5.1,10.1,8.8,13.2,12.8,11.2s23.6-24.1,23.6-24.1s-2.4-7.8-9.8-8.1
			C2600.8,777.9,2580.5,785.3,2580.5,785.3z"/>
		<path class="st33" d="M2600.4,780.1l-24.5,13.4c0,0,6.4,17.4,4.8,21.9l19.7-13.1V780.1z"/>
		<path class="st35" d="M2732.7,568.3c0,0-20.3,36-38.3,92s-114,125-114,125s10.1-0.2,15,8.4c4,7-1,16.6-1,16.6s70-46,94-65
			s75-108,75-108s47,91,48,105s-5,36-8,65s-15,99-15,99s18,4,30,1c0,0,24-134,26-151s1.7-36.3-1-51c-5-27-27-126-27-126
			L2732.7,568.3z"/>
		<path class="st36" d="M2726.5,580.3c0,0,22,11,56,16s39,4,39,4l-3-26l-82-11L2726.5,580.3z"/>
		<path class="st37" d="M2900.5,429.3c0,0-11-2-17-9c-4.6-5.4-5-10-5-10s8.9-3,17,0c8,3,7,10,7,10L2900.5,429.3z"/>
		<path class="st38" d="M2720.5,465.3c0,0,8,4,12,9s9,14,9,14l-19,1l-6-12L2720.5,465.3z"/>
		<path class="st34" d="M2796.5,401.3l-3,24c0,0,11,2,19,1s12-3,12-3l1-24c0,0-6-6-12-7S2797.5,398.3,2796.5,401.3z"/>
		<path class="st39" d="M2786.7,429.2l1.8-10.9c0,0,5,2,19,1s22-4,22-4l6,11c0,0-15,6-25,7S2786.7,429.2,2786.7,429.2z"/>
		<path class="st40" d="M2721.5,468.3c0,0,19-21,29-29s23-9,42-10s15,2,30-2s22.1-4.5,36-6c9-1,19-6,27-12c0,0,14,8,16,13
			c-3,2-15,18-33,30s-32,61-34,78s-3,50,0,67c0,0-49-7-73-13s-39-12-39-12s16-29,23-58c7-29,10-42,10-42l-20,14
			C2735.5,486.3,2728.5,486.3,2721.5,468.3z"/>
		<path class="st41" d="M2878.5,410.3l13-12c0,0,8,0,15,6s8,15,8,15l-14,10c0,0-4.2-9.7-9.4-14
			C2887.5,412.3,2878.5,410.3,2878.5,410.3z"/>
		<path class="st34" d="M2945.5,338.3c0,0-1-10,4-19s8-16,13-12s5,15,2,21s-9.2,15.5-9.2,15.5S2947.5,344.3,2945.5,338.3z"/>
		<path class="st34" d="M2950.5,326.3c0,0-2-8-5-9s-2,6-2,9s1.2,10.3,4.1,9.7C2950.5,335.3,2950.5,326.3,2950.5,326.3z"/>
		<path class="st39" d="M2720.5,465.3c0,0,8,17,21,23l-14,12c0,0-12-5-19-22L2720.5,465.3z"/>
		<path class="st42" d="M2800.5,389.3l25,10l-0.5,11.5c0,0-10.5,1.5-18.5-10.5C2802.1,393.8,2800.5,389.3,2800.5,389.3z"/>
		<path class="st34" d="M2842.5,354.3c0,0,1,18,0,27s-1.5,21.3-8.9,24.9c-6.3,3.1-12.1,2.1-18.1-0.9s-15-16-15-22s-3-25,3-29
			s19-12,25-9S2842.5,354.3,2842.5,354.3z"/>
		<path class="st43" d="M2779.5,352.3c0,0-4,8-4,15s6,20,13,28s7.2,11.5,7.2,11.5s4.8,1.5,10.8,0.5c0,0,9-13.2,9-22c0-4,1.9-7.6,4-9
			c0,0,3,0,4,3s2,6,2,6s1-18,5-24c0,0,17,0,28-12s11-30,11-30s-15,13-25,15c0,0,9-8,11-13c0,0-24,7-32,8s-26,4-33,10
			S2779.5,352.3,2779.5,352.3z"/>
		<g>
			<defs>
				<path id="SVGID_00000123411859367195260540000001738078188006005913_" d="M2568,794.9l7.9-1.4c0,0,11.6,4.7,10,17.2
					s-3.2,13.7-6.8,25.8c-1.6,5.3-4.3,18.6-10.9,18.6c-5.6,0-9.5-5.2-9.5-9.2c0-3.9,0.9-26,0.9-33.9S2562.5,794.9,2568,794.9z"/>
			</defs>
			<clipPath id="SVGID_00000160909244167591194590000004369099627365632408_">
				<use xlink:href="#SVGID_00000123411859367195260540000001738078188006005913_"  style="overflow:visible;"/>
			</clipPath>
			<path style="clip-path:url(#SVGID_00000160909244167591194590000004369099627365632408_);fill:#1D2C5C;" d="M2568,794.9l7.9-1.4
				c0,0,11.6,4.7,10,17.2s-3.2,13.7-6.8,25.8c-1.6,5.3-4.3,18.6-10.9,18.6c-5.6,0-9.5-5.2-9.5-9.2c0-3.9,0.9-26,0.9-33.9
				S2562.5,794.9,2568,794.9z"/>
			<path style="clip-path:url(#SVGID_00000160909244167591194590000004369099627365632408_);fill:#1F376A;" d="M2563.2,793.9
				c0,0,7,1.6,7,10s-1.6,16.5-1.3,19.4c0.3,3,3.5,32.1-3.8,31.6c-7.3-0.5-15.1-18.9-14.3-26.2s1.6-20.2,4.6-27
				C2558.4,795,2563.2,793.9,2563.2,793.9z"/>
		</g>
		<path class="st35" d="M2785.6,917.6c0,0,11,4.4,25.6,1.5c0,2.2,16.1,11,24.1,11.7c8,0.7,5.9,9.5,5.9,9.5s-17.6,3.7-32.9,2.2
			c-10.1-1-19-3.5-23.8-5.1c-2.2-0.8-3.5-3.1-2.9-5.4L2785.6,917.6z"/>
		<path class="st34" d="M2643.5,517.3c0,0-10,0-20,0s-16,12-15,16s4,0,9-2s13,1,20,0s14-1,18-5S2643.5,517.3,2643.5,517.3z"/>
		<g>
			<path class="st46" d="M2849.4,356.4c0,0,19.4-8.9,20.1-37.1C2869.5,319.3,2864.7,343.3,2849.4,356.4z"/>
		</g>
		<g>
			<path class="st46" d="M2855.5,321.3c0,0-10.9,10.6-17,14.3l6-1.3C2844.5,334.3,2852.2,328.2,2855.5,321.3z"/>
		</g>
		<line class="st32" x1="2850.2" y1="371.5" x2="2822.6" y2="377.3"/>
	</g>
</g>
</svg>
